<svg width="134" height="118" viewBox="0 0 134 118" fill="none" xmlns="http://www.w3.org/2000/svg">
<path d="M66.5 66.8368C66.5 73.6797 27.8227 79.2269 22.9048 79.2269C17.9868 79.2269 14 73.6797 14 66.8368C14 59.9939 17.9868 66.8368 22.9048 66.8368C32.8571 34.801 59.9047 49.7269 66.5 66.8368Z" fill="url(#paint0_linear_5_1110)"/>
<path d="M41.7492 78.5799C41.7492 83.0799 28.2492 85.5799 21.2492 94.5799C11.2492 93.0799 14.5848 92.3907 12.7492 83.5799C10.6659 73.5799 12.7492 75.0799 21.2492 75.0799C27.2492 83.5799 41.7492 70.0799 41.7492 78.5799Z" fill="url(#paint1_linear_5_1110)"/>
<path d="M38.403 94.3717C33.9251 94.8174 39.052 92.8041 29.403 86.7298C29.9053 76.6303 25.8173 81.8125 34.403 79.1134C44.1475 76.0499 41.1582 78.2716 42 86.7298C34.136 93.542 42.8809 93.926 38.403 94.3717Z" fill="#E5E5E5"/>
<path d="M88.2121 50.4779C84.0858 52.2734 80.9057 59.2092 69.8601 56.3816C64.188 50.1786 73.839 52.8445 78.9434 45.432C84.1544 37.8645 85.9045 34.3076 89.296 42.1016C83.896 50.9948 92.3383 48.6824 88.2121 50.4779Z" fill="#F2F1F1"/>
<path d="M59.7782 87.8581C56.6339 91.0773 59.7782 91 50.7782 80.2161C51.2805 70.1167 47.1925 75.2988 55.7782 72.5997C65.5227 69.5363 63 72.5997 68.5 78.1081C60.636 84.9203 65.5 82 59.7782 87.8581Z" fill="#E5E5E5"/>
<path d="M122.769 65.1384C119.625 68.3577 122.769 68.2804 113.769 57.4965C114.272 47.3971 110.183 52.5792 118.769 49.8801C128.514 46.8167 125.991 49.8801 131.491 55.3884C123.627 62.2007 128.491 59.2804 122.769 65.1384Z" fill="#F2F1F1"/>
<path d="M42 103C37.5221 103.446 46.7218 104.534 35 103C40 98.392 30.7782 93.8497 39.7782 93.8497C43.7781 93.8497 45.6582 91.0419 46.5 99.5C38.636 106.312 46.4779 102.554 42 103Z" fill="#E5E5E5"/>
<path d="M83.3953 87.1875C78.9174 87.6331 88.2294 89.85 76.3562 86.7951C81.1258 79.8718 71.5979 72.254 80.6481 72.7586C84.6704 72.9828 86.4036 68.6987 87.7242 81.9683C80.1982 92.1767 87.8732 86.7418 83.3953 87.1875Z" fill="#F2F1F1"/>
<path d="M22.8857 49.6266C20.2111 50.7384 26.594 50.9229 18.3959 50.5063C19.561 44.2006 11.6334 39.7632 17.406 38.6322C19.9716 38.1295 19.9332 34.4338 24.2211 44.7488C22.1957 54.1301 25.5604 48.5147 22.8857 49.6266Z" fill="#F2F1F1"/>
<path d="M21.9242 101.854C14.5597 101.854 17 101.854 11.5596 96.0001C16.5596 91.392 10.7024 92.7036 19.7024 92.7036C23.7023 92.7036 25.5824 89.8958 26.4241 98.3539C18.5601 105.166 26.4242 101.854 21.9242 101.854Z" fill="url(#paint2_linear_5_1110)"/>
<path d="M87.7767 70.4178C80.302 74.2973 82.7789 73.0117 74.6964 70.6036C77.7555 63.8181 72.3843 68.0853 81.519 63.3443C85.5788 61.2372 86.2587 57.7171 90.813 64.894C85.8112 75.174 92.344 68.0473 87.7767 70.4178Z" fill="#F2F1F1"/>
<path d="M118.703 91.6145C114.107 104.348 111.037 93.7972 96.9498 99.4688C91.6543 87.883 90.3942 98.8477 96.0112 83.2859C98.5076 76.3696 99.0545 71.3435 115.028 75.285C122.562 93.2294 121.512 83.8335 118.703 91.6145Z" fill="#F2F1F1"/>
<path d="M15.8384 57.8148C12.7608 67.0264 11.4393 59.6588 3.29224 64.2256C0.758111 56.2097 -0.37357 64.0375 3.38748 52.7802C5.05903 47.7771 5.56052 44.1901 14.399 46.371C17.9478 58.8119 17.7189 52.1862 15.8384 57.8148Z" fill="url(#paint3_linear_5_1110)"/>
<path d="M52.1333 46.3351C37.0114 39.4979 50.1318 37.0636 44.4302 19.8416C59.0022 14.9028 45.7498 12.1919 64.2299 20.5476C72.4431 24.2611 78.5205 25.4677 72.3465 43.835C49.8342 50.6977 61.3733 50.5129 52.1333 46.3351Z" fill="#F2F1F1"/>
<path d="M131.5 75C127.459 90 124.125 75 111.975 80.3074C108.462 72.4637 107.593 79.9023 111.388 69.3355C113.074 64.6392 113.452 61.2295 124.125 63.863C129.119 76.0132 134.5 63.863 131.5 75Z" fill="#F2F1F1"/>
<path d="M32.9017 115.477C25.5371 115.477 25.3341 107.59 19.4613 104.531C24.4613 99.9232 25.3917 95.5756 26.2832 104.531C27.2322 114.065 44.4017 104.531 37.9613 115.478C34.9017 115.478 37.9613 115.478 32.9017 115.477Z" fill="url(#paint4_linear_5_1110)"/>
<path d="M73.8247 113.968C61.6719 114.135 60.8566 107.645 60.8247 98.8051C68.5589 93.138 69.7034 89.7179 70.3247 95.9576C71.4558 107.317 112.825 94.9576 90.1054 113.968C85.4641 114.067 84.8203 113.816 73.8247 113.968Z" fill="url(#paint5_linear_5_1110)"/>
<path d="M122.674 34C126.174 52 108.174 88.5 104.674 74.5C90.6739 41.5 81.6739 35.5 67.1739 29C41.1739 8 42.6739 0 85.6739 0C102.519 0 122.674 18.2599 122.674 34Z" fill="url(#paint6_linear_5_1110)"/>
<defs>
<linearGradient id="paint0_linear_5_1110" x1="41.4048" y1="64.5716" x2="50.6171" y2="41.6623" gradientUnits="userSpaceOnUse">
<stop stop-color="#E5E5E5"/>
<stop offset="1" stop-color="#E5E5E5" stop-opacity="0"/>
</linearGradient>
<linearGradient id="paint1_linear_5_1110" x1="23" y1="80.5" x2="1.49999" y2="80.5" gradientUnits="userSpaceOnUse">
<stop stop-color="#E5E5E5"/>
<stop offset="1" stop-color="#E5E5E5" stop-opacity="0"/>
</linearGradient>
<linearGradient id="paint2_linear_5_1110" x1="26.2736" y1="96.841" x2="4.99999" y2="101" gradientUnits="userSpaceOnUse">
<stop offset="0.260417" stop-color="#E5E5E5"/>
<stop offset="1" stop-color="#E5E5E5" stop-opacity="0"/>
</linearGradient>
<linearGradient id="paint3_linear_5_1110" x1="12.5" y1="55" x2="-7.45745e-06" y2="51.5" gradientUnits="userSpaceOnUse">
<stop stop-color="#F2F1F1"/>
<stop offset="0.796875" stop-color="#F2F1F1" stop-opacity="0"/>
</linearGradient>
<linearGradient id="paint4_linear_5_1110" x1="29" y1="103.5" x2="16" y2="117" gradientUnits="userSpaceOnUse">
<stop stop-color="#E5E5E5"/>
<stop offset="1" stop-color="#E5E5E5" stop-opacity="0"/>
</linearGradient>
<linearGradient id="paint5_linear_5_1110" x1="83.5" y1="94" x2="70" y2="132" gradientUnits="userSpaceOnUse">
<stop stop-color="#F2F1F1"/>
<stop offset="1" stop-color="#F2F1F1" stop-opacity="0"/>
</linearGradient>
<linearGradient id="paint6_linear_5_1110" x1="114.5" y1="-20" x2="80" y2="39" gradientUnits="userSpaceOnUse">
<stop stop-color="#F2F1F1" stop-opacity="0"/>
<stop offset="0.8375" stop-color="#F2F1F1"/>
</linearGradient>
</defs>
</svg>
